<?xml version="1.0" standalone="no"?>
<!DOCTYPE svg PUBLIC "-//W3C//DTD SVG 20010904//EN"
 "http://www.w3.org/TR/2001/REC-SVG-20010904/DTD/svg10.dtd">
<svg version="1.0" xmlns="http://www.w3.org/2000/svg"
 width="366.000000pt" height="420.000000pt" viewBox="0 0 366.000000 420.000000"
 preserveAspectRatio="xMidYMid meet">

<g transform="translate(0.000000,420.000000) scale(0.100000,-0.100000)"
fill="#000000" stroke="none">
<path d="M1661 4124 c-68 -40 -128 -77 -134 -83 -6 -6 33 -70 103 -173 62 -89
116 -167 120 -171 9 -11 212 422 206 439 -3 7 -23 25 -45 39 -68 43 -106 35
-250 -51z"/>
<path d="M1996 4058 c-7 -18 -55 -120 -105 -226 -50 -107 -91 -197 -91 -202 0
-4 114 -174 253 -377 139 -202 265 -385 279 -406 l26 -38 226 415 c124 228
226 417 226 420 0 3 -44 31 -97 62 -54 32 -127 75 -162 96 -35 20 -68 35 -74
31 -6 -3 -7 -2 -4 3 3 6 -22 25 -56 44 -34 18 -90 51 -125 72 -34 21 -68 39
-75 41 -7 1 -14 5 -17 9 -13 17 -147 88 -167 88 -16 0 -27 -10 -37 -32z"/>
<path d="M733 3583 l-713 -416 0 -96 0 -96 446 -544 447 -543 51 108 c29 60
211 450 406 867 195 416 357 757 360 757 3 0 12 -12 21 -26 l16 -26 12 30 c11
26 10 34 -6 58 l-18 28 -9 -27 c-6 -15 -13 -27 -17 -27 -4 0 -64 83 -134 185
-69 102 -132 185 -138 185 -7 0 -333 -188 -724 -417z"/>
<path d="M2635 3193 c-125 -230 -231 -422 -236 -428 -6 -6 -15 0 -26 14 l-16
24 -14 -27 c-12 -23 -11 -29 3 -52 l17 -26 15 27 c12 23 16 25 26 14 7 -8 210
-302 451 -654 240 -352 443 -646 449 -653 9 -9 46 51 171 280 l160 293 3 581
3 581 -380 221 c-210 122 -385 222 -390 222 -4 0 -111 -188 -236 -417z"/>
<path d="M1360 2700 c-221 -473 -406 -860 -409 -860 -3 0 -12 10 -20 22 l-13
22 -15 -27 c-7 -15 -15 -27 -18 -27 -2 0 -195 234 -430 520 -234 286 -428 520
-431 520 -7 0 -2 -1797 5 -1808 7 -9 362 -219 380 -224 6 -2 114 217 240 485
126 268 232 491 235 494 4 4 14 -4 23 -16 l16 -24 14 27 c8 15 17 24 22 22 4
-3 122 -144 262 -315 192 -234 257 -307 265 -298 16 17 834 1525 834 1536 0
10 -521 775 -544 799 -10 10 -95 -164 -416 -848z"/>
<path d="M1944 1923 c-229 -422 -419 -770 -422 -773 -2 -3 -12 5 -21 17 l-18
22 -19 -24 -19 -24 -255 314 c-140 172 -257 314 -260 314 -5 1 -120 -242 -381
-802 l-78 -167 22 -14 c142 -90 548 -316 567 -316 23 0 43 33 204 330 99 182
183 330 186 330 4 0 13 -7 20 -15 17 -20 27 -19 35 6 4 11 11 19 16 17 4 -2
171 -201 369 -443 199 -242 365 -439 369 -438 18 4 597 347 613 362 9 9 98
167 199 351 100 184 188 346 197 359 l15 25 17 -22 18 -22 17 26 16 25 91
-133 c146 -213 134 -201 169 -183 l29 16 0 406 c0 250 -4 403 -9 398 -5 -6
-69 -119 -141 -252 -73 -134 -136 -243 -141 -243 -5 0 -14 9 -21 20 -12 18
-13 18 -29 -6 l-17 -26 -45 64 c-24 34 -228 331 -452 658 -224 327 -411 599
-415 603 -4 5 -196 -337 -426 -760z"/>
<path d="M3148 988 c-91 -167 -164 -304 -163 -306 6 -7 530 308 530 320 0 16
-183 288 -194 288 -4 0 -82 -136 -173 -302z"/>
<path d="M1307 755 c-97 -179 -177 -329 -177 -333 0 -13 676 -402 700 -402 13
0 102 45 197 101 l173 101 -17 22 c-111 139 -687 836 -692 836 -4 0 -86 -146
-184 -325z"/>
</g>
</svg>
