<?xml version="1.0" standalone="no"?>
<!DOCTYPE svg PUBLIC "-//W3C//DTD SVG 20010904//EN"
 "http://www.w3.org/TR/2001/REC-SVG-20010904/DTD/svg10.dtd">
<svg version="1.0" xmlns="http://www.w3.org/2000/svg"
 width="1233.000000pt" height="425.000000pt" viewBox="0 0 1233.000000 425.000000"
 preserveAspectRatio="xMidYMid meet">

<g transform="translate(0.000000,425.000000) scale(0.100000,-0.100000)"
fill="#000000" stroke="none">
<path d="M1671 4150 c-74 -44 -139 -84 -144 -89 -5 -5 34 -72 103 -173 62 -89
116 -167 120 -171 9 -11 212 422 206 439 -8 21 -88 67 -121 70 -22 2 -63 -17
-164 -76z"/>
<path d="M1996 4078 c-7 -18 -55 -120 -105 -226 -50 -107 -91 -197 -91 -202 0
-4 114 -174 253 -377 139 -202 265 -385 279 -406 l26 -38 226 415 c124 228
226 417 226 420 0 3 -44 31 -97 62 -54 32 -127 75 -162 96 -35 20 -68 35 -74
31 -6 -3 -7 -2 -4 3 3 6 -22 25 -56 44 -34 18 -90 51 -125 72 -34 21 -68 39
-75 41 -7 1 -14 5 -17 9 -13 17 -147 88 -167 88 -16 0 -27 -10 -37 -32z"/>
<path d="M733 3603 l-713 -416 0 -96 0 -96 446 -544 447 -543 51 108 c29 60
211 450 406 867 195 416 357 757 360 757 3 0 12 -12 21 -26 l16 -26 12 30 c11
26 10 34 -6 58 l-18 28 -9 -27 c-6 -15 -13 -27 -17 -27 -4 0 -64 83 -134 185
-69 102 -132 185 -138 185 -7 0 -333 -188 -724 -417z"/>
<path d="M2635 3213 c-125 -230 -231 -422 -236 -428 -6 -6 -15 0 -26 14 l-16
24 -14 -27 c-12 -23 -11 -29 3 -52 l17 -26 15 27 c12 23 16 25 26 14 7 -8 210
-302 451 -654 240 -352 443 -646 449 -653 9 -9 46 51 171 280 l160 293 3 581
3 581 -380 221 c-210 122 -385 222 -390 222 -4 0 -111 -188 -236 -417z"/>
<path d="M1360 2720 c-221 -473 -406 -860 -409 -860 -3 0 -12 10 -20 22 l-13
22 -15 -27 c-7 -15 -15 -27 -18 -27 -2 0 -195 234 -430 520 -234 286 -428 520
-431 520 -7 0 -2 -1797 5 -1808 7 -9 362 -219 380 -224 6 -2 114 217 240 485
126 268 232 491 235 494 4 4 14 -4 23 -16 l16 -24 14 27 c8 15 17 24 22 22 4
-3 122 -144 262 -315 192 -234 257 -307 265 -298 16 17 834 1525 834 1536 0
10 -521 775 -544 799 -10 10 -95 -164 -416 -848z"/>
<path d="M1944 1943 c-229 -422 -419 -770 -422 -773 -2 -3 -12 5 -21 17 l-18
22 -19 -24 -19 -24 -255 314 c-140 172 -257 314 -260 314 -5 1 -120 -242 -381
-802 l-78 -167 22 -14 c142 -90 548 -316 567 -316 23 0 43 33 204 330 99 182
183 330 186 330 4 0 13 -7 20 -15 17 -20 27 -19 35 6 4 11 11 19 16 17 4 -2
171 -201 369 -443 199 -242 365 -439 369 -438 18 4 597 347 613 362 9 9 98
167 199 351 100 184 188 346 197 359 l15 25 17 -22 18 -22 17 26 16 25 91
-133 c146 -213 134 -201 169 -183 l29 16 0 406 c0 250 -4 403 -9 398 -5 -6
-69 -119 -141 -252 -73 -134 -136 -243 -141 -243 -5 0 -14 9 -21 20 -12 18
-13 18 -29 -6 l-17 -26 -45 64 c-24 34 -228 331 -452 658 -224 327 -411 599
-415 603 -4 5 -196 -337 -426 -760z"/>
<path d="M4960 2270 l0 -400 70 0 70 0 2 238 3 237 48 3 47 3 0 -240 0 -241
70 0 71 0 -3 265 -3 265 -25 25 c-42 42 -156 47 -194 9 -15 -14 -16 -4 -16
110 l0 126 -70 0 -70 0 0 -400z"/>
<path d="M7450 2270 l0 -400 70 0 70 0 0 400 0 400 -70 0 -70 0 0 -400z"/>
<path d="M7760 2615 l0 -55 70 0 70 0 0 55 0 55 -70 0 -70 0 0 -55z"/>
<path d="M11080 2615 l0 -55 70 0 70 0 0 55 0 55 -70 0 -70 0 0 -55z"/>
<path d="M4440 2575 l0 -55 55 0 55 0 0 -325 0 -325 70 0 70 0 0 325 0 325 65
0 65 0 0 55 0 55 -190 0 -190 0 0 -55z"/>
<path d="M6386 2615 c-72 -25 -74 -34 -74 -365 -1 -311 3 -335 58 -362 50 -25
240 -25 290 0 58 29 60 37 60 362 0 275 -1 297 -20 327 -13 21 -31 35 -57 42
-54 15 -211 13 -257 -4z m194 -365 l0 -270 -22 -1 c-13 -1 -34 -2 -48 -3 -61
-4 -60 -10 -60 273 0 142 3 261 7 264 3 4 33 7 65 7 l58 0 0 -270z"/>
<path d="M9447 2624 c-4 -4 -7 -176 -7 -381 l0 -375 181 4 181 3 29 33 29 32
0 310 c0 306 0 309 -22 335 -13 14 -37 29 -55 34 -38 11 -326 15 -336 5z m268
-374 l0 -275 -67 -3 -68 -3 0 281 0 281 68 -3 67 -3 0 -275z"/>
<path d="M5585 2452 c-33 -12 -51 -26 -64 -49 -15 -30 -15 -443 0 -477 21 -44
68 -58 186 -54 l104 3 40 42 c33 36 39 49 39 88 l0 45 -64 0 -65 0 -3 -37 -3
-38 -55 0 -55 0 -3 78 -3 77 126 0 125 0 0 130 c0 129 0 130 -29 162 l-29 33
-114 2 c-62 1 -122 -1 -133 -5z m173 -169 l3 -73 -61 0 -60 0 0 68 c0 38 3 72
7 76 4 4 30 6 58 4 l50 -3 3 -72z"/>
<path d="M6890 2165 l0 -295 70 0 70 0 2 238 3 237 48 3 47 3 0 -240 0 -241
70 0 71 0 -3 265 -3 265 -25 25 c-42 42 -156 47 -194 9 -15 -14 -16 -14 -16 5
0 19 -6 21 -70 21 l-70 0 0 -295z"/>
<path d="M7760 2165 l0 -295 70 0 70 0 0 295 0 295 -70 0 -70 0 0 -295z"/>
<path d="M8070 2165 l0 -295 70 0 70 0 2 238 3 237 48 3 47 3 0 -240 0 -241
70 0 71 0 -3 265 -3 265 -25 25 c-42 42 -156 47 -194 9 -15 -14 -16 -14 -16 5
0 19 -6 21 -70 21 l-70 0 0 -295z"/>
<path d="M8695 2452 c-33 -12 -51 -26 -64 -49 -15 -30 -15 -443 0 -477 21 -45
68 -59 196 -54 l115 3 29 33 c25 27 29 41 29 87 l0 55 -64 0 -65 0 -3 -37 -3
-38 -55 0 -55 0 -3 78 -3 77 126 0 125 0 0 130 c0 129 0 130 -29 162 l-29 33
-114 2 c-62 1 -122 -1 -133 -5z m173 -169 l3 -73 -61 0 -60 0 0 68 c0 38 3 72
7 76 4 4 30 6 58 4 l50 -3 3 -72z"/>
<path d="M10115 2452 c-33 -12 -51 -26 -64 -49 -15 -30 -15 -443 0 -477 21
-45 68 -59 196 -54 l115 3 29 33 c25 27 29 41 29 87 l0 55 -64 0 -65 0 -3 -37
-3 -38 -55 0 -55 0 -3 78 -3 77 126 0 125 0 0 130 c0 129 0 130 -29 162 l-29
33 -114 2 c-62 1 -122 -1 -133 -5z m173 -169 l3 -73 -61 0 -60 0 0 68 c0 38 3
72 7 76 4 4 30 6 58 4 l50 -3 3 -72z"/>
<path d="M10634 2446 c-54 -24 -64 -48 -64 -164 0 -101 1 -104 29 -133 22 -21
39 -29 68 -30 127 -2 133 -6 133 -79 0 -61 -9 -72 -56 -68 -36 3 -39 6 -42 36
l-3 32 -65 0 -64 0 0 -42 c0 -94 48 -128 178 -128 147 0 182 33 182 170 0 80
-18 132 -52 152 -12 7 -57 15 -98 18 l-75 5 0 70 0 70 40 0 c38 0 40 -2 43
-32 l3 -33 65 0 64 0 0 48 c0 89 -49 122 -177 122 -43 -1 -92 -7 -109 -14z"/>
<path d="M11080 2165 l0 -295 70 0 70 0 0 295 0 295 -70 0 -70 0 0 -295z"/>
<path d="M11440 2443 c-55 -28 -62 -64 -58 -296 l3 -199 33 -29 c29 -26 39
-29 99 -29 55 0 71 4 90 22 l23 21 0 -45 c0 -79 1 -78 -116 -78 -62 0 -104 -4
-105 -10 -1 -5 -1 -21 -1 -35 0 -58 -8 -55 137 -55 83 0 144 5 160 12 53 24
55 39 55 403 l0 335 -65 0 c-63 0 -65 -1 -65 -26 l0 -26 -19 23 c-25 31 -120
38 -171 12z m180 -112 c5 -11 10 -83 10 -163 0 -168 -5 -181 -65 -176 l-40 3
-3 178 -2 177 44 0 c35 0 48 -5 56 -19z"/>
<path d="M11940 2165 l0 -295 70 0 70 0 2 238 3 237 48 3 47 3 0 -240 0 -241
70 0 71 0 -3 265 -3 265 -25 25 c-42 42 -156 47 -194 9 -15 -14 -16 -14 -16 5
0 19 -6 21 -70 21 l-70 0 0 -295z"/>
<path d="M3148 1008 c-91 -167 -164 -304 -163 -306 6 -7 530 308 530 320 0 16
-183 288 -194 288 -4 0 -82 -136 -173 -302z"/>
<path d="M1307 775 c-97 -179 -177 -329 -177 -333 0 -13 676 -402 700 -402 13
0 102 45 197 101 l173 101 -17 22 c-111 139 -687 836 -692 836 -4 0 -86 -146
-184 -325z"/>
</g>
</svg>
