<?xml version="1.0" standalone="no"?>
<!DOCTYPE svg PUBLIC "-//W3C//DTD SVG 20010904//EN"
 "http://www.w3.org/TR/2001/REC-SVG-20010904/DTD/svg10.dtd">
<svg version="1.0" xmlns="http://www.w3.org/2000/svg"
 width="1059.000000pt" height="805.000000pt" viewBox="0 0 1059.000000 805.000000"
 preserveAspectRatio="xMidYMid meet">

<g transform="translate(0.000000,805.000000) scale(0.100000,-0.100000)"
fill="#000000" stroke="none">
<path d="M3220 620 l0 -400 70 0 70 0 2 238 3 237 48 3 47 3 0 -240 0 -241 70
0 71 0 -3 265 -3 265 -25 25 c-42 42 -156 47 -194 9 -15 -14 -16 -4 -16 110
l0 126 -70 0 -70 0 0 -400z"/>
<path d="M5710 620 l0 -400 70 0 70 0 0 400 0 400 -70 0 -70 0 0 -400z"/>
<path d="M6020 965 l0 -55 70 0 70 0 0 55 0 55 -70 0 -70 0 0 -55z"/>
<path d="M9340 965 l0 -55 70 0 70 0 0 55 0 55 -70 0 -70 0 0 -55z"/>
<path d="M2680 925 l0 -55 65 0 65 0 0 -325 0 -325 70 0 70 0 0 325 0 325 65
0 65 0 0 55 0 55 -200 0 -200 0 0 -55z"/>
<path d="M4646 965 c-72 -25 -74 -34 -74 -365 -1 -311 3 -335 58 -362 50 -25
240 -25 290 0 58 29 60 37 60 362 0 275 -1 297 -20 327 -13 21 -31 35 -57 42
-54 15 -211 13 -257 -4z m194 -365 l0 -270 -22 -1 c-13 -1 -34 -2 -48 -3 -61
-4 -60 -10 -60 273 0 142 3 261 7 264 3 4 33 7 65 7 l58 0 0 -270z"/>
<path d="M7707 974 c-4 -4 -7 -176 -7 -381 l0 -375 181 4 181 3 29 33 29 32 0
310 c0 306 0 309 -22 335 -13 14 -37 29 -55 34 -38 11 -326 15 -336 5z m268
-374 l0 -275 -67 -3 -68 -3 0 281 0 281 68 -3 67 -3 0 -275z"/>
<path d="M3845 802 c-33 -12 -51 -26 -64 -49 -15 -30 -15 -443 0 -477 21 -44
68 -58 186 -54 l104 3 40 42 c33 36 39 49 39 88 l0 45 -64 0 -65 0 -3 -37 -3
-38 -55 0 -55 0 -3 78 -3 77 126 0 125 0 0 130 c0 129 0 130 -29 162 l-29 33
-114 2 c-62 1 -122 -1 -133 -5z m173 -169 l3 -73 -61 0 -60 0 0 68 c0 38 3 72
7 76 4 4 30 6 58 4 l50 -3 3 -72z"/>
<path d="M5150 515 l0 -295 70 0 70 0 2 238 3 237 48 3 47 3 0 -240 0 -241 70
0 71 0 -3 265 -3 265 -25 25 c-42 42 -156 47 -194 9 -15 -14 -16 -14 -16 5 0
19 -6 21 -70 21 l-70 0 0 -295z"/>
<path d="M6020 515 l0 -295 70 0 70 0 0 295 0 295 -70 0 -70 0 0 -295z"/>
<path d="M6330 515 l0 -295 70 0 70 0 2 238 3 237 48 3 47 3 0 -240 0 -241 70
0 71 0 -3 265 -3 265 -25 25 c-42 42 -156 47 -194 9 -15 -14 -16 -14 -16 5 0
19 -6 21 -70 21 l-70 0 0 -295z"/>
<path d="M6955 802 c-33 -12 -51 -26 -64 -49 -15 -30 -15 -443 0 -477 21 -45
68 -59 196 -54 l115 3 29 33 c25 27 29 41 29 87 l0 55 -64 0 -65 0 -3 -37 -3
-38 -55 0 -55 0 -3 78 -3 77 126 0 125 0 0 130 c0 129 0 130 -29 162 l-29 33
-114 2 c-62 1 -122 -1 -133 -5z m173 -169 l3 -73 -61 0 -60 0 0 68 c0 38 3 72
7 76 4 4 30 6 58 4 l50 -3 3 -72z"/>
<path d="M8375 802 c-33 -12 -51 -26 -64 -49 -15 -30 -15 -443 0 -477 21 -45
68 -59 196 -54 l115 3 29 33 c25 27 29 41 29 87 l0 55 -64 0 -65 0 -3 -37 -3
-38 -55 0 -55 0 -3 78 -3 77 126 0 125 0 0 130 c0 129 0 130 -29 162 l-29 33
-114 2 c-62 1 -122 -1 -133 -5z m173 -169 l3 -73 -61 0 -60 0 0 68 c0 38 3 72
7 76 4 4 30 6 58 4 l50 -3 3 -72z"/>
<path d="M8894 796 c-54 -24 -64 -48 -64 -164 0 -101 1 -104 29 -133 22 -21
39 -29 68 -30 127 -2 133 -6 133 -79 0 -61 -9 -72 -56 -68 -36 3 -39 6 -42 36
l-3 32 -65 0 -64 0 0 -42 c0 -94 48 -128 178 -128 147 0 182 33 182 170 0 80
-18 132 -52 152 -12 7 -57 15 -98 18 l-75 5 0 70 0 70 40 0 c38 0 40 -2 43
-32 l3 -33 65 0 64 0 0 48 c0 89 -49 122 -177 122 -43 -1 -92 -7 -109 -14z"/>
<path d="M9340 515 l0 -295 70 0 70 0 0 295 0 295 -70 0 -70 0 0 -295z"/>
<path d="M9700 793 c-55 -28 -62 -64 -58 -296 l3 -199 33 -29 c29 -26 39 -29
99 -29 55 0 71 4 90 22 l23 21 0 -45 c0 -79 1 -78 -116 -78 -62 0 -104 -4
-105 -10 -1 -5 -1 -21 -1 -35 0 -58 -8 -55 137 -55 83 0 144 5 160 12 53 24
55 39 55 403 l0 335 -65 0 c-63 0 -65 -1 -65 -26 l0 -26 -19 23 c-25 31 -120
38 -171 12z m180 -112 c5 -11 10 -83 10 -163 0 -168 -5 -181 -65 -176 l-40 3
-3 178 -2 177 44 0 c35 0 48 -5 56 -19z"/>
<path d="M10200 515 l0 -295 70 0 70 0 2 238 3 237 48 3 47 3 0 -240 0 -241
70 0 71 0 -3 265 -3 265 -25 25 c-42 42 -156 47 -194 9 -15 -14 -16 -14 -16 5
0 19 -6 21 -70 21 l-70 0 0 -295z"/>
</g>
</svg>
